<?xml version="1.0" encoding="utf-8"?>
<!-- Generator: Adobe Illustrator 24.0.3, SVG Export Plug-In . SVG Version: 6.00 Build 0)  -->
<svg version="1.1" id="Ebene_1" xmlns="http://www.w3.org/2000/svg" xmlns:xlink="http://www.w3.org/1999/xlink" x="0px" y="0px"
	 viewBox="0 0 133.1 211.7" style="enable-background:new 0 0 133.1 211.7;" xml:space="preserve">
<style type="text/css">
	.st0{fill:#FFFFFF;}
</style>
<path class="st0" d="M133.2,106.2c-0.1,0.8-0.1,1.6-0.2,2.4c-1.3,2.6-3.3,4.7-5.3,6.7c-4.7,4.6-9.4,9.4-14.1,14
	c-0.5,0.5-1,0.9-1.3,1.5c-1.6,1.2-3,2.6-4.2,4.2c-0.4,0.3-0.8,0.6-1.1,0.9c-6.3,6.3-12.6,12.6-18.9,18.9c-0.4,0.4-0.8,0.9-1.2,1.4
	c-1.6,1.3-3.1,2.7-4.3,4.3c-0.3,0.2-0.6,0.4-0.9,0.6c-6.4,6.4-12.8,12.8-19.2,19.2c-0.3,0.3-0.4,0.6-0.6,0.9c-1.6,1.2-3,2.7-4.2,4.2
	c-0.6,0.2-1,0.7-1.4,1.2c-5.5,5.4-10.9,10.9-16.3,16.3c-1.1,1.1-2.4,2.1-3.3,3.4c-1.4,1.3-2.7,2.6-4.1,3.8c-0.2,0-0.4,0-0.5,0.1
	c-3.6,2.3-8.8,1.5-11.9-1.8c-1.2-1.3-2.3-2.7-3.8-3.6c-1-1.5-2.2-2.7-3.7-3.7c-0.2-0.7-0.8-1.1-1.3-1.6c-2.8-2.8-5.6-5.6-8.3-8.3
	c-2-2-2.8-4.3-2.9-7.1c0-2.5,1.4-4.2,2.4-6.2c1.8-1.6,3.5-3.2,4.9-5.1c0.7-0.2,1.1-0.8,1.5-1.3c4.6-4.6,9.2-9.2,13.8-13.8
	c0.5-0.5,1-0.9,1.3-1.5c3-2.6,5.9-5.4,8.4-8.4c0.7-0.2,1.1-0.8,1.5-1.3c4.2-4.2,8.4-8.3,12.5-12.5c1-1,2.2-1.9,3-3.2
	c2.9-2.5,5.5-5.2,8-8c0.2-0.1,0.5-0.2,0.6-0.4c5.2-5.2,10.5-10.5,15.7-15.7c0.3-0.3,0.8-0.5,0.4-1.1c-0.5-1.1-1.5-1.8-2.3-2.6
	c-4.7-4.7-9.4-9.3-14.1-13.9c-2.8-3.1-5.8-6-8.8-8.8c-5.3-5.5-10.7-11-16.2-16.2c-2.9-3.2-6-6.3-9.2-9.2c-5-5.3-10.2-10.4-15.5-15.5
	c-2.6-3.1-6-5.5-7.8-9.2c-0.1-0.3-0.1-0.5-0.2-0.8C0.3,29.2,0.3,29,0,28.8c0-1.1,0-2.2,0-3.4c0.3-0.2,0.3-0.4,0.2-0.7
	c1.1-3.1,3.5-5.2,5.8-7.4c0.5-0.6,1-1.2,1.5-1.8c3.8-3.1,7.1-6.6,10.4-10.3c0.4-0.4,0.9-0.7,1.2-1.1c3.4-4,7.5-5.1,12.5-3.3
	c2,1.3,3.5,3.3,5.3,4.7c2.2,2.3,4.4,4.6,6.7,6.8c4.5,4.5,9.1,9,13.6,13.4c1.6,1.9,3.3,3.6,5.2,5.1c4.1,4.2,8.2,8.4,12.3,12.5
	c2.5,2.5,5.1,4.9,7.6,7.4c1.6,1.9,3.3,3.6,5.2,5.2c3.7,3.8,7.5,7.6,11.2,11.4c2.9,2.9,5.8,5.7,8.7,8.5c1.7,2,3.5,3.8,5.5,5.5
	c0.4,0.5,0.9,1,1.3,1.5c4.9,4.9,9.9,9.9,14.8,14.8c1.4,1.4,2.7,3,3.6,4.8C133.1,103.7,133.1,105,133.2,106.2z"/>
</svg>
