<svg width="80" height="21" viewBox="0 0 80 21" fill="none" xmlns="http://www.w3.org/2000/svg">
<g clip-path="url(#clip0_1428_595)">
<path d="M25.623 16.4436L26.619 14.1758C27.6953 14.9632 29.1251 15.3727 30.5387 15.3727C31.5829 15.3727 32.2415 14.979 32.2415 14.3806C32.2255 12.7113 25.9925 14.0184 25.9443 9.82939C25.9283 7.7034 27.856 6.06561 30.5869 6.06561C32.2094 6.06561 33.8319 6.45931 34.9885 7.35695L34.0568 9.67191C32.9965 9.01049 31.6793 8.53805 30.4263 8.53805C29.5749 8.53805 29.0126 8.93175 29.0126 9.43569C29.0287 11.0735 35.3098 10.1758 35.3741 14.1758C35.3741 16.3491 33.4945 17.8766 30.7957 17.8766C28.8198 17.8766 27.0046 17.4199 25.623 16.4436ZM63.8399 13.3569C63.3419 14.2073 62.4102 14.79 61.3339 14.79C59.7435 14.79 58.4584 13.5302 58.4584 11.9711C58.4584 10.4121 59.7435 9.15222 61.3339 9.15222C62.4102 9.15222 63.3419 9.7349 63.8399 10.5853L66.5869 9.08923C65.5588 7.29395 63.5829 6.06561 61.3339 6.06561C58.0086 6.06561 55.3098 8.71128 55.3098 11.9711C55.3098 15.231 58.0086 17.8766 61.3339 17.8766C63.599 17.8766 65.5588 16.664 66.5869 14.853L63.8399 13.3569V13.3569ZM36.7556 1.16797H40.1933V17.6562H36.7556V1.16797ZM67.9363 1.16797V17.6562H71.3741V12.7113L75.4544 17.6562H79.856L74.6672 11.7821L79.4704 6.30183H75.2616L71.3741 10.853V1.16797H67.9363ZM50.4102 13.3884C49.9122 14.1916 48.8841 14.79 47.7275 14.79C46.1371 14.79 44.852 13.5302 44.852 11.9711C44.852 10.4121 46.1371 9.15222 47.7275 9.15222C48.8841 9.15222 49.9122 9.78214 50.4102 10.601V13.3884ZM50.4102 6.30183V7.64041C49.8479 6.71128 48.4504 6.06561 46.9885 6.06561C43.9684 6.06561 41.5909 8.67978 41.5909 11.9554C41.5909 15.231 43.9684 17.8766 46.9885 17.8766C48.4504 17.8766 49.8479 17.231 50.4102 16.3018V17.6404H53.848V6.30183H50.4102Z" fill="#A1A1AA"/>
<path d="M4.36987 13.3717C4.36987 14.5213 3.42208 15.4504 2.24939 15.4504C1.0767 15.4504 0.128906 14.5213 0.128906 13.3717C0.128906 12.2221 1.0767 11.293 2.24939 11.293H4.36987V13.3717ZM5.43011 13.3717C5.43011 12.2221 6.3779 11.293 7.55059 11.293C8.72329 11.293 9.67108 12.2221 9.67108 13.3717V18.5686C9.67108 19.7182 8.72329 20.6473 7.55059 20.6473C6.3779 20.6473 5.43011 19.7182 5.43011 18.5686V13.3717Z" fill="#A1A1AA"/>
<path d="M7.55103 5.02467C6.37834 5.02467 5.43055 4.09553 5.43055 2.94593C5.43055 1.79632 6.37834 0.867188 7.55103 0.867188C8.72372 0.867188 9.67151 1.79632 9.67151 2.94593V5.02467H7.55103ZM7.55103 6.07979C8.72372 6.07979 9.67151 7.00892 9.67151 8.15853C9.67151 9.30813 8.72372 10.2373 7.55103 10.2373H2.23376C1.06107 10.2373 0.113281 9.30813 0.113281 8.15853C0.113281 7.00892 1.06107 6.07979 2.23376 6.07979H7.55103Z" fill="#A1A1AA"/>
<path d="M16.0493 8.15853C16.0493 7.00892 16.997 6.07979 18.1697 6.07979C19.3424 6.07979 20.2902 7.00892 20.2902 8.15853C20.2902 9.30813 19.3424 10.2373 18.1697 10.2373H16.0493V8.15853ZM14.989 8.15853C14.989 9.30813 14.0412 10.2373 12.8685 10.2373C11.6958 10.2373 10.748 9.30813 10.748 8.15853V2.94593C10.748 1.79632 11.6958 0.867188 12.8685 0.867188C14.0412 0.867188 14.989 1.79632 14.989 2.94593V8.15853V8.15853Z" fill="#A1A1AA"/>
<path d="M12.8685 16.4898C14.0412 16.4898 14.989 17.419 14.989 18.5686C14.989 19.7182 14.0412 20.6473 12.8685 20.6473C11.6958 20.6473 10.748 19.7182 10.748 18.5686V16.4898H12.8685ZM12.8685 15.4504C11.6958 15.4504 10.748 14.5213 10.748 13.3717C10.748 12.2221 11.6958 11.293 12.8685 11.293H18.1858C19.3585 11.293 20.3063 12.2221 20.3063 13.3717C20.3063 14.5213 19.3585 15.4504 18.1858 15.4504H12.8685Z" fill="#A1A1AA"/>
</g>
<defs>
<clipPath id="clip0_1428_595">
<rect width="80" height="20" fill="white" transform="translate(0 0.773438)"/>
</clipPath>
</defs>
</svg>
